<svg width="35" height="35" viewBox="0 0 35 35" fill="none" xmlns="http://www.w3.org/2000/svg">
<path d="M16.0419 17.1692L0 10.4219V25.4527C0.00845469 26.0795 0.196013 26.6908 0.540546 27.2145C0.885079 27.7381 1.37221 28.1524 1.94447 28.4082L15.9252 35H16.0419V17.1692ZM17.5002 14.5831L34.0477 7.64131C33.7692 7.3319 33.4321 7.08076 33.056 6.90241L19.0558 0.349544C18.5695 0.119384 18.0382 0 17.5002 0C16.9622 0 16.4309 0.119384 15.9447 0.349544L1.94447 6.90241C1.56833 7.08076 1.23128 7.3319 0.95279 7.64131L17.5002 14.5831ZM18.9586 17.1692V35H19.0558L33.056 28.4082C33.6253 28.1538 34.1104 27.7426 34.4547 27.2226C34.7991 26.7027 34.9883 26.0956 35.0005 25.4721V10.4219L18.9586 17.1692Z" fill="white" fill-opacity="0.89"/>
</svg>
